<?xml version="1.0" encoding="UTF-8"?>
<svg width="100pt" height="100pt" version="1.1" viewBox="0 0 100 100" xmlns="http://www.w3.org/2000/svg">
 <path d="m50 5.5c-11.801 0-23.121 4.6875-31.465 13.035-8.3477 8.3438-13.035 19.664-13.035 31.465s4.6875 23.121 13.035 31.465c8.3438 8.3477 19.664 13.035 31.465 13.035s23.121-4.6875 31.465-13.035c8.3477-8.3438 13.035-19.664 13.035-31.465s-4.6875-23.121-13.035-31.465c-8.3438-8.3477-19.664-13.035-31.465-13.035zm2.9531 70.652c-1.1641 1.0938-2.7148 1.6875-4.3125 1.6562-1.5938 0.035156-3.1406-0.5625-4.3008-1.6562-1.125-1.0195-1.7656-2.4609-1.7695-3.9766-0.003906-1.5156 0.63281-2.9648 1.7539-3.9844 1.1406-1.0859 2.668-1.6758 4.2422-1.6445 1.6133-0.035156 3.1758 0.55469 4.3672 1.6445 1.1562 0.99219 1.8203 2.4453 1.8086 3.9688 0.011718 1.5273-0.64063 2.9844-1.7891 3.9922zm12.137-32.484c-0.51172 1.375-1.2188 2.668-2.1016 3.8398-1.2188 1.4141-2.5703 2.7109-4.0312 3.875-1.3906 1.0938-2.668 2.3203-3.8242 3.6602-0.58594 0.86719-1.0273 1.8281-1.2969 2.8398-0.41406 1.6094-0.63672 3.2617-0.66797 4.9258h-9.5078l-0.035156-1.4766v-0.003906c-0.039062-2.7578 0.55078-5.4922 1.7188-7.9922 1.3359-2.6328 3.2422-4.9375 5.5742-6.7461 1.6484-1.2305 3.1523-2.6406 4.4922-4.1992 0.52344-0.79688 0.79297-1.7383 0.76953-2.6914-0.007813-1.4219-0.71094-2.7539-1.8789-3.5625-1.4648-1.0391-3.2383-1.5547-5.0352-1.4609-1.9258-0.082031-3.8125 0.55469-5.2969 1.7773-1.3555 1.1367-2.1289 2.8203-2.1016 4.5898h-9.1914c-0.13281-4.0078 1.5742-7.8555 4.6367-10.441 3.1328-2.7539 7.2617-4.1289 12.383-4.1289h-0.003906c2.9023-0.082031 5.7812 0.5 8.418 1.707 2.2734 1.0977 4.1953 2.8008 5.5625 4.9219 1.3438 1.9961 2.0703 4.3516 2.0859 6.7617-0.003906 1.2969-0.22656 2.5859-0.66797 3.8047z"/>
</svg>
