<?xml version="1.0" encoding="UTF-8"?><svg id="Layer_1" xmlns="http://www.w3.org/2000/svg" width="150" height="150" viewBox="0 0 150 150"><path d="M87.68,65.73c-1.763,1.096-3.483,2.262-5.226,3.389-.333.215-.688.396-1.03.59-.119-.2-.177-.261-.192-.33-.039-.188-.051-.381-.087-.569-.51-2.64-.261-5.486-2.072-7.772-.366-.462-.756-.989-1.258-1.243-1.978-.999-4.173-.185-5.458,2.028-2.662,4.586-5.283,9.197-7.915,13.801-1.448,2.533-1.239,3.998.886,6.047,1.855,1.789,3.724,3.564,5.613,5.316.298.277.737.402,1.111.598-.142.18-.283.36-.425.539-1.69,0-3.38,0-5.069,0-1.693,0-3.387-.023-5.08.012-1.92.04-3.156,1.197-3.191,2.92-.039,1.931.98,3.027,3.006,3.2.613.052,1.23.062,1.846.064,5.157.009,10.314.003,15.471.021,1.631.006,3.243-.077,4.059-1.781.814-1.7-.137-3.027-1.135-4.297-2.518-3.205-5.046-6.402-7.541-9.626-.249-.321-.517-.9-.39-1.189.421-.957,1.019-1.835,1.618-2.862.504.878.862,1.557,1.27,2.204.948,1.504,1.863,1.806,3.513,1.149.496-.198.977-.454,1.425-.747,2.962-1.935,5.919-3.877,8.861-5.842.538-.359,1.018-.815,1.492-1.259.719-.673.842-1.515.617-2.44-.614-2.525-2.487-3.308-4.721-1.92Z" fill="#231f20"/><path d="M85.704,63.257c2.814-.016,5.114-2.283,5.109-5.037-.005-2.745-2.463-5.17-5.198-5.127-2.719.042-5.068,2.447-5.033,5.151.037,2.798,2.316,5.029,5.121,5.013Z" fill="#231f20"/><path d="M121.409,51.619c-5.155-10.211-13.567-18.497-23.885-23.467-.546-12.364-10.739-22.222-23.238-22.222-12.748,0-23.095,10.254-23.257,22.963-9.272,4.831-16.906,12.366-21.846,21.572-12.579.31-22.682,10.597-22.682,23.25,0,12.21,9.408,22.216,21.37,23.181,4.84,10.4,13.017,18.925,23.158,24.209.162,12.709,10.51,22.963,23.257,22.963,12.499,0,22.693-9.858,23.238-22.222,10.42-5.019,18.899-13.418,24.04-23.768,12.23-.689,21.937-10.822,21.937-23.225s-9.788-22.624-22.091-23.235ZM74.285,10.978c10.045,0,18.218,8.173,18.218,18.218s-8.173,18.218-18.218,18.218-18.218-8.172-18.218-18.218,8.173-18.218,18.218-18.218ZM11.547,73.716c0-10.045,8.173-18.218,18.218-18.218s18.218,8.172,18.218,18.218-8.173,18.218-18.218,18.218-18.218-8.172-18.218-18.218ZM74.285,139.022c-10.045,0-18.218-8.173-18.218-18.218s8.173-18.218,18.218-18.218,18.218,8.172,18.218,18.218-8.173,18.218-18.218,18.218ZM96.528,113.971c-2.919-9.513-11.773-16.431-22.243-16.431-10.215,0-18.885,6.586-22.014,15.741-6.904-4.108-12.606-10.024-16.441-17.103,9.907-2.669,17.199-11.711,17.199-22.461,0-10.284-6.676-19.004-15.928-22.077,3.776-6.113,8.99-11.242,15.17-14.919,3.129,9.155,11.799,15.741,22.014,15.741,10.47,0,19.323-6.918,22.243-16.431,7.031,3.892,12.891,9.632,16.937,16.564-9.546,2.899-16.495,11.767-16.495,22.261s7.019,19.448,16.639,22.302c-4.051,7.044-9.966,12.875-17.081,16.814ZM120.235,93.072c-10.045,0-18.218-8.173-18.218-18.218s8.172-18.218,18.218-18.218,18.218,8.172,18.218,18.218-8.172,18.218-18.218,18.218Z" fill="#231f20"/></svg>