<?xml version="1.0" encoding="UTF-8"?><svg id="Layer_1" xmlns="http://www.w3.org/2000/svg" width="150" height="150" viewBox="0 0 150 150"><path d="M101.695,10.497c1.082,3.237,2.168,6.472,3.243,9.711,2.016,6.074,4.044,12.144,6.021,18.23.356,1.095.891,1.518,2.097,1.511,9.349-.054,18.699-.031,28.048-.032.459,0,.918,0,1.377,0,.04.094.08.188.12.283-.341.282-.673.577-1.025.845-7.615,5.788-15.225,11.583-22.862,17.341-.739.557-.904,1.015-.558,1.895,3.374,8.6,6.704,17.218,10.042,25.832.204.527.368,1.07.358,1.781-.453-.26-.914-.508-1.359-.782-8.053-4.957-16.115-9.9-24.144-14.897-1.052-.655-1.889-.517-2.787.137-7.528,5.48-15.055,10.961-22.585,16.438-.398.289-.823.542-1.528,1.003.157-.696.218-1.068.326-1.425,2.705-8.985,5.417-17.968,8.121-26.953.491-1.632.36-1.995-1.031-3.05-7.566-5.733-15.134-11.464-22.698-17.199-.3-.227-.576-.487-.863-.731.033-.098.067-.197.1-.295.452,0,.903,0,1.355,0,9.458-.001,18.917-.017,28.375.018,1.044.004,1.531-.317,1.868-1.328,2.997-8.97,6.049-17.921,9.09-26.875.171-.503.391-.989.589-1.483.103.008.206.017.309.025Z" fill="#231f20"/><path d="M93.954,132.288c-37.25-1.473-67.105-32.466-67.257-69.745-.093-22.783,10.692-43.042,27.451-55.908.88-.675.086-2.041-.945-1.632C25.497,16.012,6.168,43.57,7.459,75.485c1.525,37.72,32.256,68.247,69.985,69.542,19.183.658,36.76-6.141,50.088-17.709.836-.725-.014-2.056-1.016-1.586-9.824,4.612-20.889,7.017-32.563,6.555Z" fill="#231f20"/></svg>